# xmcd CD database file
#
# Track frame offsets:
#	150
#	22877
#	41857
#	61382
#	79505
#	102582
#	122222
#	140720
#	160670
#	176045
#	197550
#
# Disc length: 2900 seconds
#
# Revision: 0
# Processed by: cddbd v1.5.1PL0 Copyright (c) Steve Scherf et al.
# Submitted via: CDex 1.51
#
DISCID=950b520b
DTITLE=小松未歩 - 小松未歩　２ｎｄ〜未来
DYEAR=1998
DGENRE=JPop
TTITLE0=未来
TTITLE1=ａｎｙｂｏｄｙ’ｓ　ｇａｍｅ
TTITLE2=チャンス
TTITLE3=氷の上に立つように
TTITLE4=手ごたえのない愛
TTITLE5=あなたのリズム
TTITLE6=１万メートルの景色
TTITLE7=涙
TTITLE8=静けさの後
TTITLE9=願い事ひとつだけ
TTITLE10=Ｄｅｅｐ　Ｅｍｏｔｉｏｎ
EXTD=YEAR: 1998-12-19
EXTT0=
EXTT1=
EXTT2=
EXTT3=
EXTT4=
EXTT5=
EXTT6=
EXTT7=
EXTT8=
EXTT9=
EXTT10=
PLAYORDER=
